<svg id="Layer_1" enable-background="new 0 0 509.342 509.342" height="512" viewBox="0 0 509.342 509.342" width="512" xmlns="http://www.w3.org/2000/svg"><g><path d="m502.617 313.019c4.393-18.738 6.725-38.27 6.725-58.348 0-141.395-114.814-254.671-254.671-254.671-46.118 0-89.448 12.299-126.835 33.821-75.97 43.734-110.571 126.743-111.002 220.85-.643 140.595 95.129 224.525 235.726 224.615 107.543.069 200.214-36.063 237.952-128.379 4.988-12.201 9.05-24.858 12.102-37.879 0-.001 0-.002.001-.002.001-.003.001-.005.002-.007z" fill="#55c7a6"/><path d="m363.555 384.63c-140.597-.09-255.144-115.265-254.501-255.86.154-33.609 6.827-65.643 18.786-94.942-75.97 43.733-127.407 125.547-127.837 219.653-.643 140.595 113.904 255.77 254.501 255.86 107.543.069 198.258-66.124 235.996-158.44-37.246 21.433-80.525 33.758-126.945 33.729z" fill="#39ae96"/><g><g><g><path d="m259.322 365.826 6.349-59.818-10.612-77.846-112.673-44.435v142.818z" fill="#f73c9a"/></g><g><path d="m146.666 280.264v-94.849l-61.87-24.399v177.818l170.263 67.146v-43.142l-71.344-28.135c-22.356-8.818-37.049-30.407-37.049-54.439z" fill="#e0248b"/></g><g><path d="m291.079 213.239 133.466-52.634-150.95-50.982-98.526 30.091 14.533 44.013 33.008 22.72z" fill="#fff"/></g><g><path d="m424.545 304.39v-143.785l-121.646 47.973v154.289z" fill="#ffc305"/></g><g><path d="m308.302 299.936v-93.489l-54.02 21.304v177.818l170.263-67.146v-34.033l-69.453 27.39c-22.463 8.859-46.79-7.698-46.79-31.844z" fill="#fa870a"/></g></g><g><g><path d="m485.505 220.846c-7.982-54.923-35.525-105.365-77.557-142.034-42.447-37.032-96.882-57.426-153.278-57.426-42.97 0-84.795 11.852-121.054 33.87 2.952 2.348 5.471 5.279 7.486 8.404 1.937 3.004 3.124 6.749 3.609 10.597 32.911-20.067 70.912-30.871 109.959-30.871 51.077 0 100.375 18.469 138.815 52.004 38.074 33.216 63.021 78.895 70.248 128.62.796 5.476 5.497 9.419 10.872 9.419.526 0 1.06-.038 1.596-.116 6.012-.873 10.178-6.455 9.304-12.467z" fill="#a0ebff"/></g><g><path d="m34.736 233.43c-.526 0-1.059-.038-1.596-.116-6.012-.874-10.177-6.456-9.304-12.468 5.072-34.903 18.314-68.76 38.293-97.913 19.585-28.576 45.759-52.855 75.692-70.213 5.257-3.046 11.986-1.257 15.034 3.998s1.258 11.986-3.998 15.034c-27.12 15.726-50.834 37.724-68.581 63.618-18.09 26.395-30.078 57.045-34.669 88.64-.795 5.476-5.497 9.42-10.871 9.42z" fill="#fff"/></g><g><path d="m476.202 276.028c-6.017-.875-11.594 3.292-12.468 9.304-7.227 49.725-32.174 95.403-70.248 128.62-38.439 33.535-87.738 52.004-138.815 52.004-2.203 0-4.402-.048-6.598-.118v22.016c2.196.064 4.395.102 6.598.102 56.396 0 110.831-20.395 153.278-57.426 42.031-36.669 69.575-87.11 77.557-142.033.873-6.013-3.293-11.595-9.304-12.469z" fill="#a0ebff"/></g><g><path d="m254.671 487.956c-56.396 0-110.831-20.395-153.278-57.426-42.031-36.669-69.575-87.111-77.556-142.033-.874-6.012 3.292-11.594 9.304-12.468 6.011-.868 11.594 3.292 12.468 9.304 7.226 49.725 32.174 95.403 70.248 128.62 38.439 33.535 87.738 52.004 138.815 52.004 6.075 0 11 4.925 11 11s-4.926 10.999-11.001 10.999z" fill="#fff"/></g></g><g><circle cx="34.722" cy="218.676" fill="#a0ebff" r="22.591"/></g><g><circle cx="474.62" cy="286.914" fill="#a0ebff" r="22.591"/></g><path d="m279.601 139.203h-16.283c-3.772 0-6.256 2.024-6.256 4.324v48.11c0 2.671-2.691 4.504-5.176 3.525l-.304-.12c-1.65-.65-2.65-2.362-2.354-4.11 1.989-11.753-2.022-17.388-9.002-19.991 4.6-2.116 7.083-8.372 7.083-15.087 0-12.419-8.832-16.651-20.515-16.651-15.823 0-20.975 9.292-20.975 16.467 0 4.416.828 5.795 7.451 5.795 5.336 0 6.716-2.116 6.716-5.244 0-3.588 2.3-4.692 6.808-4.692 3.772 0 6.808 1.288 6.808 6.624 0 7.452-3.68 7.912-7.175 7.912-3.128 0-4.14 2.76-4.14 5.52s1.012 5.52 4.14 5.52c5.06 0 8.832 1.196 8.832 7.36-.02 1.298.067 2.509-.148 4.091l-31.811-12.525c-19.838-7.811-19.15-36.12 1.044-42.958l69.252-23.45-18.536-6.26-170.264 57.653 169.486 66.735 40.153-15.835c-3.809-1.5-4.32-6.718-.84-8.876 5.29-3.281 8.637-9.116 8.637-18.299v-23.827c0-15.823-9.935-21.711-22.631-21.711zm8.28 45.538c0 6.256-3.128 9.2-8.28 9.2h-8.188v-42.226h8.188c5.152 0 8.28 2.944 8.28 9.2z" fill="#a0ebff"/><g fill="#2c2630"><path d="m235.258 174.213v-1.748c0-6.164-3.772-7.36-8.832-7.36-3.128 0-4.14-2.76-4.14-5.52s1.012-5.52 4.14-5.52c3.496 0 7.175-.46 7.175-7.912 0-5.336-3.036-6.624-6.808-6.624-4.508 0-6.808 1.104-6.808 4.692 0 3.128-1.38 5.244-6.716 5.244-6.624 0-7.451-1.38-7.451-5.795 0-7.176 5.151-16.467 20.975-16.467 11.684 0 20.515 4.232 20.515 16.651 0 6.715-2.484 12.971-7.083 15.087 5.428 2.024 9.383 6.072 9.383 13.523v1.748c0 15.087-10.396 20.791-23.275 20.791-15.823 0-21.895-9.659-21.895-17.387 0-4.14 1.748-5.244 6.808-5.244 5.888 0 7.359 1.288 7.359 4.784 0 4.324 4.048 5.335 8.188 5.335 6.257.001 8.465-2.299 8.465-8.278z"/><path d="m279.601 127.203c12.696 0 22.631 5.888 22.631 21.711v23.827c0 15.823-9.935 21.711-22.631 21.711h-16.283c-3.772 0-6.256-2.024-6.256-4.324v-58.601c0-2.3 2.484-4.324 6.256-4.324zm-8.187 12.511v42.226h8.188c5.152 0 8.28-2.944 8.28-9.2v-23.827c0-6.256-3.128-9.2-8.28-9.2h-8.188z"/></g></g></g></svg>